<svg xmlns="http://www.w3.org/2000/svg" xmlns:xlink="http://www.w3.org/1999/xlink" width="32" height="40" viewBox="0 0 32 40">
  <defs>
    <linearGradient id="linear-gradient" y1="0.5" x2="1" y2="0.5" gradientUnits="objectBoundingBox">
      <stop offset="0" stop-color="#f4bb00"/>
      <stop offset="0.502" stop-color="#ffe765"/>
      <stop offset="1" stop-color="#ff9d00"/>
    </linearGradient>
    <filter id="Path_1976" x="0" y="0" width="32" height="40" filterUnits="userSpaceOnUse">
      <feOffset dy="3" input="SourceAlpha"/>
      <feGaussianBlur result="blur"/>
      <feFlood flood-color="#b1570a"/>
      <feComposite operator="in" in2="blur"/>
      <feComposite in="SourceGraphic"/>
    </filter>
  </defs>
  <g id="lol-goldbadge" transform="translate(-672 -154)">
    <g transform="matrix(1, 0, 0, 1, 672, 154)" filter="url(#Path_1976)">
      <path id="Path_1976-2" data-name="Path 1976" d="M16-5,32,7.223V32H0V7.223Z" transform="translate(32 32) rotate(180)" fill="url(#linear-gradient)"/>
    </g>
    <path id="Union_125" data-name="Union 125" d="M1949.907-2130.181l.857-1.469a11.581,11.581,0,0,1-3.764-8.39v-.216a11.566,11.566,0,0,1,4.18-8.965v-.052l-1.588-2.727h6.682v17.455h10.818l-1.273,4.364Zm-1.815-10.088a10.471,10.471,0,0,0,3.088,7.463v-14.927A10.471,10.471,0,0,0,1948.091-2140.269Zm18.328,5.125a10.643,10.643,0,0,0,0-10.253,9.753,9.753,0,0,0-8.506-5.123v-1.126a10.82,10.82,0,0,1,9.284,5.412,11.828,11.828,0,0,1,.467,11.09Z" transform="translate(-1269.41 2310.147)" fill="#aa5c00"/>
  </g>
</svg>
